<svg width="974" height="1288" viewBox="0 0 974 1288" fill="none" xmlns="http://www.w3.org/2000/svg">
<path d="M748.459 89.7503C745.896 89.3354 741.176 89.3792 738.056 89.8773C730.96 91.0815 717.721 96.3693 710.17 101.055C707.008 102.989 704.277 104.559 704.049 104.42C703.897 104.327 703.787 102.798 703.968 101.134C704.245 96.9183 702.624 89.1442 700.951 86.2445C700.106 84.8939 697.876 82.9072 695.9 81.7016C692.631 79.7078 691.837 79.6412 687.215 80.893C681.001 82.5311 675.915 86.4234 671.142 93.2213C664.796 102.087 665.822 101.773 658.22 97.136C648.718 91.34 641.198 89.9893 635.339 93.0969C629.742 95.9465 628.22 101.178 630.756 108.989C631.593 111.378 633.49 114.937 635.125 116.873C638.272 120.776 653.468 132.969 661.585 138.129C678.351 148.773 740.181 184.713 743.458 185.668C748.44 187.246 758.843 185.239 764.583 181.642C769.433 178.649 774.421 171.67 774.744 167.378C775.403 157.235 768.615 150.067 752.197 143.811C748.131 142.27 744.706 140.703 744.571 140.412C744.558 140.091 746.807 137.6 749.639 134.839C760.013 124.672 765.252 112.834 763.369 103.438C761.795 95.588 757.2 91.3234 748.459 89.7503ZM756.841 102.171C760.619 109.486 755.38 121.324 743.364 132.473C737.578 138.026 737.038 138.74 737.051 140.941C737.239 144.396 737.771 144.72 751.402 149.903C759.459 152.938 761.376 153.899 764.484 156.839C768.746 160.796 769.909 164.533 768.378 168.923C766.645 173.817 762.724 177.167 756.324 179.109C745.99 182.201 749.034 183.536 707.255 158.156C686.912 145.852 664.956 132.773 658.356 129.06C644.926 121.495 640.724 117.783 637.082 110.759C635.877 108.458 635.019 104.907 635.187 102.922C635.321 99.4538 635.46 99.2256 637.959 98.0356C642.497 95.8969 647.589 97.1239 656.711 102.688C662.564 106.258 665.258 107.484 666.284 107.17C667.111 106.84 670.239 103.423 673.218 99.394C682.075 87.7801 688.782 83.6239 693.875 86.7305C697.22 88.7707 698.968 97.8752 697.548 105.674C696.668 110.879 696.736 111.965 698.332 112.938C699.928 113.912 701.537 113.327 709.333 108.583C720.92 101.557 724.537 99.9005 734.243 97.1556C746.029 93.9054 753.41 95.4844 756.841 102.171Z" fill="url(#paint0_linear_35_1706)"/>
<path d="M685.792 162.394C681.537 163.557 674.31 167.71 673.15 169.612C671.897 171.666 674.084 173.209 677.221 172.513C684.014 171.123 692.405 164.549 690.483 162.228C690.09 161.675 687.966 161.737 685.792 162.394Z" fill="url(#paint1_linear_35_1706)"/>
<path d="M714.202 182.334C713.053 182.677 710.246 184.201 707.76 185.712C699.609 190.867 699.392 195.328 707.514 191.93C715.589 188.608 721.505 180.107 714.202 182.334Z" fill="url(#paint2_linear_35_1706)"/>
<path d="M645.32 143.763C642.352 144.353 636.337 147.888 635.316 149.562C634.341 151.16 635.308 152.48 637.491 152.664C641.827 152.907 651.569 145.487 648.984 143.91C648.376 143.539 646.742 143.482 645.32 143.763Z" fill="url(#paint3_linear_35_1706)"/>
<path d="M675.341 190.471C672.554 191.277 668.662 192.87 666.683 194.064C663.766 195.938 663.319 196.501 663.767 197.818C664.498 200.039 667.306 200.394 671.777 199.05C676.049 197.689 680.936 193.78 681.412 191.46C681.842 189.217 680.896 189.058 675.341 190.471Z" fill="url(#paint4_linear_35_1706)"/>
<path d="M640.066 169.476C638.647 169.237 632.632 172.771 631.564 174.521C631.193 175.13 631.324 175.94 631.856 176.265C633.681 177.378 636.467 176.572 639.603 173.996C643.169 171.056 643.3 169.987 640.066 169.476Z" fill="url(#paint5_linear_35_1706)"/>
<path d="M368.602 117.298C338.91 122.696 332.803 144.352 355.153 165.097C370.226 179.014 395.825 191.565 415.057 194.427C422.334 195.467 433.119 194.882 438.577 193.126C446.633 190.59 451.636 183.956 450.467 177.453C448.647 167.633 436.043 157.943 419.345 153.651C408.885 150.985 392.057 150.725 391.212 153.261C390.888 154.237 392.187 154.432 403.102 155.277C414.082 156.123 422.269 158.204 430.39 162.171C440.461 167.113 446.308 173.616 446.308 179.859C446.308 186.493 437.472 191.11 424.608 191.11C403.362 191.11 374.125 178.038 356.972 160.87C348.851 152.741 345.992 147.668 345.992 141.035C345.927 137.523 346.252 136.288 347.746 133.686C356.323 119.054 387.899 116.648 424.868 127.833C445.074 133.881 459.758 140.059 471.907 147.473C480.484 152.741 487.241 155.472 482.888 151.895C479.379 148.969 463.461 139.214 457.029 136.027C440.591 127.833 415.512 119.964 397.515 117.298C389.263 116.128 375.034 116.128 368.602 117.298Z" fill="url(#paint6_linear_35_1706)"/>
<path d="M388.809 139.149C383.546 139.93 378.478 142.531 376.854 145.197C374.84 148.449 375.035 153.066 377.374 156.708C381.532 163.341 393.552 170.365 406.156 173.552C412.263 175.112 422.529 176.023 423.179 174.982C423.828 173.942 422.919 173.617 417.331 172.836C402.063 170.755 382.117 159.96 379.972 152.676C378.868 149.099 379.972 147.083 384.196 145.002C386.924 143.637 388.549 143.376 395.891 143.116C405.052 142.791 410.574 143.572 422.269 146.628C436.823 150.465 454.04 158.009 465.41 165.553C473.142 170.625 482.238 179.535 484.902 184.542C488.41 191.11 487.111 197.484 481.263 202.491C469.504 212.571 445.399 215.237 416.357 209.58C401.673 206.718 396.93 205.027 370.422 193.061C367.043 191.566 364.184 190.525 363.989 190.72C363.015 191.631 364.899 193.321 371.006 196.898C383.676 204.442 400.504 210.555 416.681 213.482C441.566 218.099 461.902 216.928 475.871 210.035C482.108 206.913 486.006 203.727 488.41 199.695C489.905 197.093 490.165 195.923 490.165 191.761C490.165 187.664 489.84 186.233 488.215 182.981C485.552 177.649 475.741 167.894 467.814 162.626C443.775 146.758 407.975 136.093 388.809 139.149Z" fill="url(#paint7_linear_35_1706)"/>
<path d="M332.283 170.365C331.373 171.73 332.738 176.933 335.207 181.875C339.105 189.614 347.551 199.044 347.551 195.597C347.551 195.142 345.472 191.63 342.938 187.728C340.405 183.891 337.221 178.234 335.792 175.177C334.362 172.121 333.063 169.649 332.933 169.649C332.803 169.649 332.478 169.974 332.283 170.365Z" fill="url(#paint8_linear_35_1706)"/>
<path d="M505.108 184.607C504.913 184.932 505.238 186.883 505.823 188.834C506.797 192.216 506.797 192.736 505.758 195.858C505.173 197.744 503.808 200.735 502.769 202.556C500.69 206.263 500.365 208.019 501.859 208.019C503.029 208.019 506.342 203.597 508.421 199.239C510.63 194.622 510.501 190.85 508.032 187.013C506.017 183.762 505.758 183.567 505.108 184.607Z" fill="url(#paint9_linear_35_1706)"/>
<path d="M768.132 251.535C767.05 252.224 762.809 255.495 758.761 258.759L751.361 264.678L746.282 262.577C739.423 259.757 729.245 256.858 726.388 256.957C724.895 257.009 723.677 257.507 722.927 258.379C721.179 260.457 722.687 262.682 732.311 272.108C737.091 276.822 740.877 280.985 740.763 281.445C740.646 281.839 737.998 284.209 734.9 286.724C731.802 289.24 728.275 292.486 727.023 293.896C724.772 296.447 724.772 296.447 724.64 303.87C724.413 316.046 720.003 331.296 713.61 341.865C705.068 356.088 689.817 371.78 672.817 383.954C665.144 389.492 663.201 391.577 663.981 393.437C664.971 395.745 671.918 393.616 690.097 385.435C703.218 379.513 723.016 367.436 736.12 357.285C749.414 346.996 762.112 332.629 766.828 322.444C767.614 320.725 768.977 318.79 769.803 318.241C771.26 317.149 772.087 314.778 774.842 302.383L776.022 297.071L779.766 296.29C786.731 294.682 793.861 292.221 795.182 290.939C795.936 290.197 796.478 288.941 796.448 288.097C796.381 286.147 794.656 285.166 783.383 280.677C778.768 278.821 774.674 277.011 774.34 276.762C773.937 276.386 773.871 272.614 774.203 267.202C774.705 257.358 774.012 252.372 772.014 251.01C770.482 249.957 770.482 249.957 768.132 251.535ZM770.477 261.019C770.574 263.814 770.484 268.698 770.268 271.828L769.948 277.566L771.894 279.32C773.032 280.257 777.396 282.382 781.548 283.995C789.326 287.043 791.773 288.259 791.209 288.864C791.019 289.001 787.291 290.237 782.847 291.433C774.546 293.869 772.381 295.181 771.847 298.518C770.926 303.821 769.086 312.605 768.603 313.663C768.057 314.788 767.925 314.727 766.697 313.078C765.947 312.063 763.604 308.24 761.46 304.541C759.315 300.841 756.715 297.092 755.704 296.086C753.489 294.081 750.95 293.974 741.457 295.801C734.675 297.078 729.812 297.443 729.785 296.663C729.776 296.403 733.178 293.291 737.349 289.828C743.793 284.463 744.921 283.252 744.869 281.757C744.79 279.482 742.615 276.76 734.731 268.77C729.205 263.171 727.845 261.462 728.884 261.425C729.079 261.419 734.142 263.064 740.061 265.006L750.85 268.665L755.172 265.847C757.525 264.333 761.646 261.327 764.176 259.286C766.768 257.179 769.246 255.531 769.575 255.65C770.034 255.764 770.371 257.965 770.477 261.019ZM748.952 305.692C741.389 331.203 724.686 353.778 701.452 369.879C695.677 373.919 685.854 379.336 685.824 378.491C685.82 378.361 689.095 375.319 693.063 371.667C702.265 363.343 711.146 353.273 715.953 345.688C723.41 333.911 727.93 319.958 728.038 308.111L728.186 301.143L733.118 300.907C735.845 300.812 740.702 300.252 743.868 299.687C747.098 299.119 749.951 298.89 750.22 299.14C750.551 299.324 749.941 302.339 748.952 305.692ZM757.345 305.855C758.176 307.323 760.237 310.505 761.881 312.92C763.59 315.334 764.966 317.498 764.973 317.693C765 318.473 759.754 326.529 755.283 332.541C743.792 347.973 724.119 363.624 699.737 376.641C687.353 383.188 682.867 385.036 691.402 379.989C706.247 371.273 715.619 364.115 725.604 354.007C739.043 340.394 748.947 322.35 752.506 305.048C753.447 300.33 753.444 300.265 754.665 301.719C755.277 302.478 756.511 304.323 757.345 305.855Z" fill="url(#paint10_linear_35_1706)"/>
<path d="M708.127 279.587C708.006 279.851 707.755 285.717 707.603 292.554C707.232 308.054 705.904 318.447 702.616 330.47C699.906 340.39 699.654 342.481 701.017 342.433C702.9 342.368 705.646 337.197 708.399 328.511C710.629 321.601 711.536 315.908 711.847 306.137C712.35 292.584 710.09 276.2 708.127 279.587Z" fill="url(#paint11_linear_35_1706)"/>
<path d="M789.106 305.011C788.616 305.874 787.231 309.045 785.971 312.082C781.356 323.305 773.516 335.291 762.516 347.972C756.513 354.818 755.477 356.807 757.814 356.725C759.438 356.669 767.453 349.753 772.015 344.453C776.14 339.69 783.106 328.775 785.946 322.56C789.693 314.426 792.367 303.465 790.549 303.529C790.225 303.54 789.598 304.213 789.106 305.011Z" fill="url(#paint12_linear_35_1706)"/>
<path d="M685.79 356.954C683.039 360.108 682.583 361.946 684.466 361.88C685.7 361.837 690.25 356.213 690.2 354.783C690.141 353.093 688.35 353.936 685.79 356.954Z" fill="url(#paint13_linear_35_1706)"/>
<path d="M733.674 367.326C730.482 368.999 728.451 370.436 728.474 371.086C728.521 372.451 729.815 372.275 734.747 370.152C739.422 368.102 741.698 366.266 741.011 365.183C740.258 364.103 739.226 364.334 733.674 367.326Z" fill="url(#paint14_linear_35_1706)"/>
<path d="M237.865 342.46C235.137 347.461 235.562 353.401 239.178 360.331C246.812 374.864 269.804 386.057 291.858 385.915C298.06 385.865 297.841 385.783 297.531 388.247C297.131 391.256 299.259 392.771 303.209 392.256C305.791 391.843 306.321 392.023 308.564 394.256C311.928 397.605 314.292 402.792 315.36 409.071C316.13 414.042 316.089 415.432 314.923 430.52C314.178 439.62 314.557 442.711 316.844 447.233C320.416 454.436 326.363 457.371 336.319 456.868C338.442 456.705 345.329 455.603 351.649 454.268C366.637 451.193 368.54 450.947 373.414 451.051C378.483 451.094 383.015 453.284 387.258 457.523C391.744 461.989 394.364 466.752 397.366 475.725C399.401 481.789 400.123 483.352 401.03 483.502C402.534 483.703 402.529 482.025 401.023 475.581C399.087 467.204 397.278 463.459 392.402 457.113C388.679 452.261 387.429 451.076 384.485 449.427C377.069 445.225 372.052 445.144 353.983 448.83C338.368 452.035 333.572 452.596 328.794 451.623C323.979 450.597 321.388 448.214 319.545 442.973C318.318 439.37 318.303 434.337 319.558 421.268C320.615 410.262 318.336 400.85 313.105 394.678C311.453 392.822 309.596 390.793 309.021 390.325C308.112 389.617 308.096 389.148 308.962 388.126C310.693 386.082 310.89 383.459 309.411 381.399C308.159 379.656 308.121 379.603 311.816 374.389C325.18 355.348 330.538 332.287 324.444 320.01C319.11 309.349 308.565 307.473 297.927 315.271C292.159 319.492 288.194 325.221 284.451 334.713C282.725 338.994 281.013 342.625 280.583 342.694C280.137 342.853 276.976 341.68 273.458 340.123C257.724 333.246 242.375 334.259 237.865 342.46ZM250.19 340.577C256.072 339.636 261.409 340.608 270.349 344.036C274.993 345.826 279.538 347.366 280.513 347.387C283.551 347.608 285.464 345.594 287.285 340.443C289.445 334.65 293.141 327.433 295.543 324.428C298.329 321.067 303.946 317.194 307.291 316.394C316.124 314.215 321.621 320.756 321.664 333.294C321.711 344.388 315.686 361.843 307.622 374.117C305.892 376.72 303.889 379.279 303.203 379.771C301.462 381.022 289.094 381.175 281.823 380.071C271.014 378.384 260.659 374.21 252.316 368.271C248.099 365.294 242.714 357.793 241.568 353.412C239.773 346.455 242.925 341.71 250.19 340.577Z" fill="url(#paint15_linear_35_1706)"/>
<path d="M417.147 558.662C415.299 558.246 413.618 559.294 414.424 560.41C415.069 561.415 419.404 561.9 420.484 561.146C421.218 560.548 419.336 559.157 417.147 558.662Z" fill="url(#paint16_linear_35_1706)"/>
<path d="M343.375 513.27C342.88 513.639 341.908 515.26 341.24 517.014C339.358 521.647 339.028 521.893 335.412 521.513C329.836 520.877 329.44 522.582 334.111 526.789L336.942 529.317L335.416 534.12C334.531 536.753 334.008 539.322 334.286 539.832C334.869 541.269 338.349 540.365 342.008 537.842L345.322 535.475L347.342 537.121C348.814 538.305 349.655 538.574 350.528 538.231C351.619 537.803 351.671 537.046 351.144 533.825C350.456 529.699 350.742 528.947 353.97 526.362C356.868 524.022 356.552 522.771 352.915 522.535C351.44 522.379 349.895 522.095 349.575 521.872C349.202 521.612 348.251 519.681 347.465 517.627C345.84 513.482 344.8 512.361 343.375 513.27ZM345.351 520.434L345.908 522.249L344.289 522.072C342.851 521.862 342.728 521.697 343.104 520.136C343.342 519.113 343.612 518.27 343.723 518.11C344.095 517.577 344.848 518.656 345.351 520.434ZM346.153 529.396C344.889 531.21 344.798 531.226 342.773 529.814C341.387 528.848 340.773 528.024 340.969 527.289C341.424 525.386 342.046 524.948 344.171 525.081C347.052 525.266 347.827 526.995 346.153 529.396ZM337.761 525.528C337.575 525.795 337.176 525.913 336.856 525.69C336.59 525.505 336.509 525.052 336.695 524.785C336.918 524.465 337.334 524.438 337.6 524.623C337.92 524.846 337.984 525.208 337.761 525.528ZM340.774 534.842C337.95 537.075 337.417 536.703 338.818 533.557C339.576 531.787 339.794 531.702 341.02 532.556C342.3 533.448 342.279 533.592 340.774 534.842Z" fill="url(#paint17_linear_35_1706)"/>
<path d="M388.455 546.195C387.145 545.916 386.006 546.074 385.905 546.559C385.439 548.136 391.539 550.406 393.151 549.23C394.049 548.509 391.363 546.795 388.455 546.195Z" fill="url(#paint18_linear_35_1706)"/>
<path d="M374.937 540.024C372.61 539.274 371.726 539.292 371.349 540.06C370.856 541.222 371.479 541.577 376.615 543.413C378.639 544.031 380.167 544.224 380.502 543.744C381.171 542.784 379.002 541.351 374.937 540.024Z" fill="url(#paint19_linear_35_1706)"/>
<path d="M358.299 533.104C355.502 532.344 353.783 532.652 354.025 534.01C354.202 535.005 363.481 537.826 364.38 537.105C365.279 536.384 361.633 534.002 358.299 533.104Z" fill="url(#paint20_linear_35_1706)"/>
<path d="M350.92 540.169C349.973 540.619 351.763 544.641 353.757 546.665C357.533 550.565 356.918 545.539 353.057 541.421C352.246 540.538 351.356 539.997 350.92 540.169Z" fill="url(#paint21_linear_35_1706)"/>
<path d="M238.655 463.193C238.357 463.62 237.759 465.502 237.304 467.404C236.849 469.307 236.325 471.082 236.139 471.348C235.953 471.615 234.292 471.726 232.402 471.597C227.524 471.21 227.153 472.537 231.301 475.904L234.527 478.548L233.309 483.249C232.442 486.766 232.375 488.225 233.154 488.926C234.284 490.031 235.656 489.085 238.259 485.351L240.007 482.843L243.956 485.358C249.115 488.637 250.067 487.952 247.674 482.638C246.728 480.472 245.995 478.456 246.021 478.077C246.047 477.699 247.382 476.806 249.021 476.046C253.5 473.936 252.625 472.692 246.539 472.335L242.758 472.078L241.735 468.432C241.184 466.383 240.899 464.519 241.047 464.306C241.196 464.092 240.865 463.545 240.279 463.136C239.692 462.727 238.952 462.766 238.655 463.193ZM240.621 477.643C239.234 479.293 238.713 479.246 238.406 477.526C238.137 475.753 239.77 474.434 240.863 475.592C241.391 476.198 241.323 476.864 240.621 477.643ZM243.769 481.422C243.743 481.801 243.45 481.993 243.184 481.807C242.864 481.584 242.783 481.132 242.969 480.865C243.192 480.545 243.448 480.406 243.554 480.48C243.714 480.592 243.832 480.991 243.769 481.422Z" fill="url(#paint22_linear_35_1706)"/>
<path d="M319.718 519.373C317.199 519.124 317.68 520.252 321.145 522.667C323.063 524.004 324.758 524.868 324.907 524.655C325.985 523.107 322.508 519.574 319.718 519.373Z" fill="url(#paint23_linear_35_1706)"/>
<path d="M307.428 512.235C306.107 511.631 305.063 511.538 304.548 512.051C303.83 512.74 304.091 513.16 306.277 514.683C307.663 515.649 309.48 516.677 310.284 517C312.021 517.577 313.148 516.301 311.709 515.298C311.122 514.889 310.45 514.262 310.098 513.858C309.8 513.492 308.59 512.728 307.428 512.235Z" fill="url(#paint24_linear_35_1706)"/>
<path d="M381.822 566.621L378.613 567.476L375.893 564.788C372.416 561.255 369.282 559.388 368.325 560.306C367.937 560.749 367.851 563.146 368.228 565.787L368.794 570.542L365.91 571.385C364.313 571.858 362.802 572.548 362.579 572.869C362.059 573.616 364.137 575.064 367.696 576.435L370.594 577.504L371.449 582.3C372.663 588.854 373.755 589.218 377.229 584.347L379.885 580.65L382.378 581.277C385.803 582.158 386.615 580.425 384.341 577.097C382.297 574.007 382.264 573.033 384.458 569.885C386.837 566.47 385.957 565.461 381.822 566.621ZM374.727 567.938C375.122 568.848 375.011 569.008 373.563 569.268C372.078 569.58 372.009 569.452 371.589 567.099L371.101 564.619L372.7 565.733C373.606 566.365 374.486 567.375 374.727 567.938ZM378.761 573.286C378.873 573.92 378.582 574.906 378.099 575.6C377.02 577.147 374.128 576.637 373.087 574.723C372.275 573.047 372.849 572.337 375.367 571.793C377.613 571.297 378.47 571.657 378.761 573.286ZM375.632 581.411C374.851 582.532 374.798 582.494 374.455 580.828C374.176 579.524 374.329 579.076 374.995 579.144C376.31 579.188 376.562 580.077 375.632 581.411Z" fill="url(#paint25_linear_35_1706)"/>
<path d="M289.009 500.825C288.364 500.613 287.657 500.833 287.428 501.388C287.068 502.246 287.526 502.724 289.733 504.104C292.867 505.971 294.523 506.094 293.855 504.44C293.427 503.349 291.012 501.587 289.009 500.825Z" fill="url(#paint26_linear_35_1706)"/>
<path d="M272.275 490.747C271.95 490.758 271.455 491.127 271.158 491.554C270.823 492.034 271.58 492.879 274.086 494.625C277.497 497.003 279.51 497.296 278.703 495.386C278.222 494.258 273.126 490.548 272.275 490.747Z" fill="url(#paint27_linear_35_1706)"/>
<path d="M328.443 532.193C326.011 532.955 324.996 534.071 326.062 534.814C326.968 535.446 330.758 534.44 331.501 533.373C332.357 532.146 330.657 531.516 328.443 532.193Z" fill="url(#paint28_linear_35_1706)"/>
<path d="M359.417 553.543C358.636 554.663 362.017 561.062 363.193 560.852C364.551 560.609 364.345 558.404 362.775 555.883C361.222 553.453 360.049 552.636 359.417 553.543Z" fill="url(#paint29_linear_35_1706)"/>
<path d="M258.452 483.649C257.13 483.046 256.14 482.989 255.805 483.47C254.615 485.177 261.335 488.83 262.845 487.346C263.727 486.534 262.576 485.573 258.452 483.649Z" fill="url(#paint30_linear_35_1706)"/>
<path d="M319.051 535.556C316.156 536.075 312.746 537.899 312.907 538.804C313.229 540.614 320.494 538.94 322.093 536.646C323.06 535.259 322.218 534.989 319.051 535.556Z" fill="url(#paint31_linear_35_1706)"/>
<path d="M248.102 493.954C247.544 494.755 248.498 498.273 249.462 498.707C251.034 499.406 251.692 498.121 250.597 496.169C249.454 493.946 248.623 493.207 248.102 493.954Z" fill="url(#paint32_linear_35_1706)"/>
<path d="M356.051 569.508C352.713 569.639 354.032 572.064 357.44 572.061C358.377 572.08 359.319 571.865 359.542 571.545C360.026 570.851 357.675 569.451 356.051 569.508Z" fill="url(#paint33_linear_35_1706)"/>
<path d="M346.315 567.796C343.674 567.382 341.557 568.601 343.049 569.641C344.488 570.645 349.563 571.09 350.158 570.236C350.902 569.169 349.426 568.22 346.315 567.796Z" fill="url(#paint34_linear_35_1706)"/>
<path d="M252.447 504.196C251.575 504.539 252.281 510.343 253.347 511.086C254.573 511.94 255.432 509.685 254.684 507.578C253.528 504.236 253.267 503.816 252.447 504.196Z" fill="url(#paint35_linear_35_1706)"/>
<path d="M298.791 541.332C295.257 542.198 294.087 542.968 294.621 544.133C294.878 544.787 303.314 543.137 303.909 542.283C304.764 541.056 301.963 540.53 298.791 541.332Z" fill="url(#paint36_linear_35_1706)"/>
<path d="M254.611 518.704C253.867 519.771 254.896 523.976 256.085 524.884C257.524 525.887 258.081 524.293 257.347 521.483C256.613 518.673 255.466 517.477 254.611 518.704Z" fill="url(#paint37_linear_35_1706)"/>
<path d="M312.462 559.896C308.526 559.293 306.722 560.177 308.855 561.663C310.4 562.74 317.643 563.824 318.579 563.05C319.642 562.206 316.451 560.536 312.462 559.896Z" fill="url(#paint38_linear_35_1706)"/>
<path d="M285.624 544.997C282.228 545.325 278.419 547.267 278.661 548.625C278.902 549.983 279.642 549.943 284.368 548.163C287.22 547.139 288.427 546.316 288.314 545.682C288.201 545.049 287.376 544.87 285.624 544.997Z" fill="url(#paint39_linear_35_1706)"/>
<path d="M297.867 556.066C292.732 555.024 290.89 555.167 291.851 556.629C293.057 558.421 303.208 560.106 303.259 558.556C303.337 557.421 302.479 557.061 297.867 556.066Z" fill="url(#paint40_linear_35_1706)"/>
<path d="M267.215 539.934L264.746 540.75L262.421 538.178C261.188 536.764 259.562 535.235 258.816 534.714C256.843 533.34 255.713 535.644 256.427 539.391L257.029 542.506L253.281 543.223C250.929 543.645 249.327 544.352 249.078 545.05C248.606 546.068 249.011 546.509 253.227 549.21L257.816 552.17L257.639 554.584C256.924 563.677 260.245 566.071 263.039 558.426L264.226 555.132L265.835 555.778C270.571 557.731 271.253 557.889 271.774 557.142C272.071 556.715 271.306 554.518 270.073 552.31C267.504 547.587 267.429 546.9 269.288 544.233C272.077 540.231 271.334 538.683 267.215 539.934ZM260.797 541.644C260.611 541.911 260.318 542.103 260.212 542.029C260.052 541.918 259.971 541.465 259.997 541.087C260.06 540.655 260.316 540.516 260.582 540.702C260.902 540.925 261.02 541.324 260.797 541.644ZM263.765 546.249C263.877 546.883 263.363 548.189 262.656 549.202L261.318 551.123L260.802 548.227C260.367 545.783 260.521 545.336 261.59 545.051C263.096 544.594 263.507 544.801 263.765 546.249ZM257.207 547.703C257.054 548.151 256.388 548.084 255.535 547.489C254.256 546.598 254.224 546.417 255.293 546.132C256.672 545.745 257.541 546.43 257.207 547.703Z" fill="url(#paint41_linear_35_1706)"/>
<path d="M279.894 550.832C277.45 550.476 275.849 551.977 277.778 552.845C279.814 553.788 285.006 554.633 285.415 554.046C285.973 553.246 282.573 551.193 279.894 550.832Z" fill="url(#paint42_linear_35_1706)"/>
<path d="M793.216 614.675C795.513 623.214 799.983 630.502 807.484 637.619C814.229 644.021 818.247 646.4 826.685 649.034C831.508 650.565 834.091 650.867 841.627 650.673C850.265 650.451 850.911 650.526 853.858 652.427C865.23 659.905 885.453 659.569 905.702 651.646C923.995 644.462 948.803 628.146 961.869 614.66C966.344 610.039 967.321 608.726 967.112 607.812C966.654 606.123 965.705 606.745 958.293 613.326C941.051 628.851 921.023 641.642 903.545 648.345C890.166 653.563 876.513 655.385 866.206 653.397C862.091 652.537 855.448 649.996 855.382 649.216C855.374 648.94 857.317 647.649 859.672 646.301C864.698 643.367 866.981 641.055 869.079 636.955C871.263 632.669 870.967 628.446 868.214 625.207C865.369 621.969 863.737 621.138 860.101 621.001C855.959 620.832 852.285 622.72 848.987 626.667C844.621 631.929 843.671 637.654 846.165 643.246C846.849 644.791 847.167 646.346 846.809 646.723C845.915 647.666 835.796 647.558 830.986 646.487C816.974 643.491 803.889 632.148 797.147 617.241C795.777 614.15 794.33 611.612 794.007 611.574C792.805 611.329 792.599 612.208 793.216 614.675ZM855.033 625.776C857.795 624.187 862.765 624.335 864.652 626.126C868.331 629.618 867.728 634.599 862.851 639.644C858.826 643.885 852.914 646.336 851.027 644.546C848.668 642.308 847.799 637.272 849.029 633.424C850.352 629.574 851.776 627.79 855.033 625.776Z" fill="url(#paint43_linear_35_1706)"/>
<path d="M888.373 641.471C889.599 642.634 897.132 642.349 903.119 640.953C911.022 639.049 917.051 635.813 925.69 628.694C929.65 625.466 930.982 623.684 930.038 622.789C929.284 622.073 927.194 623.046 921.182 626.925C910.468 633.776 901.967 637.443 893.311 638.723C888.319 639.449 887.052 640.217 888.373 641.471Z" fill="url(#paint44_linear_35_1706)"/>
<path d="M977.473 558.348C977.644 559.586 979.722 563.348 983.852 569.955L986.736 574.663L982.46 585.026C977.536 596.923 977.118 598.497 978.392 599.706C979.901 601.138 982.629 599.965 989.935 594.627C993.769 591.816 997.199 589.428 997.656 589.325C998.615 589.07 1002.53 592.786 1008.56 599.757C1014.2 606.279 1014.9 606.583 1017.72 603.614C1018.7 602.577 1023.8 593.618 1028.96 583.738C1034.21 573.855 1039.51 564.018 1040.83 561.777C1043.65 557.014 1044.23 554.517 1042.82 553.541C1042.21 553.143 1038.17 553.155 1033.67 553.547C1029.17 553.938 1019.11 554.243 1011.29 554.168C987.427 554 985.497 554.05 982.608 554.354C979.72 554.658 977.288 556.56 977.473 558.348ZM994.474 557.911C1000.68 557.981 1009.79 558.023 1014.66 557.99C1019.53 557.956 1023.81 558.076 1024.14 558.206C1024.74 558.42 1021.47 559.792 1001.45 567.663C992.619 571.109 989.745 571.964 989.313 571.286C984.5 563.225 982.222 558.824 982.669 558.353C982.937 558.07 988.22 557.888 994.474 557.911ZM1012.74 567.005C1030.32 560.668 1033.24 559.857 1030.32 562.277C1020.51 570.346 1003.4 582.234 997.181 585.291C994.958 586.406 991.472 588.472 989.398 589.997C987.321 591.43 985.286 592.723 984.874 592.78C984.462 592.837 984.992 590.294 986.106 587.231C987.128 584.17 988.358 580.322 988.776 578.748L989.575 575.923L992.754 574.462C994.573 573.679 1003.54 570.276 1012.74 567.005ZM1007.34 583.374C1011.36 580.834 1031.53 566.384 1032.78 565.064C1033.99 563.884 1032.65 566.999 1029.19 573.571C1027.18 577.301 1023.43 584.938 1020.82 590.522C1018.25 596.06 1015.89 600.81 1015.63 601.093C1015.13 601.611 1013.53 599.997 1004.95 590.333C1003.34 588.535 1002.23 586.862 1002.5 586.579C1002.73 586.344 1004.94 584.861 1007.34 583.374Z" fill="url(#paint45_linear_35_1706)"/>
<path d="M350.242 644.44C349.402 644.792 345.946 647.65 342.495 650.858C339.045 654.065 335.339 657.168 334.225 657.706L332.176 658.706L327.454 647.441C322.782 636.295 322.707 636.116 320.79 635.58C316.846 634.416 313.874 636.577 303.411 648.29C299.697 652.383 296.417 655.66 296.162 655.555C295.907 655.451 295.737 647.139 295.854 637.156C295.946 627.114 295.909 618.112 295.747 617.053C295.171 613.49 291.261 611.395 287.902 612.803C285.563 613.784 282.234 617.786 270.827 633.134C264.48 641.712 258.378 649.695 257.199 650.753C253.075 654.877 252.61 652.254 254.563 634.034C256.928 611.415 256.931 604.862 254.459 606.532C253.3 607.3 252.571 610.776 250.377 626.067C247.155 647.988 247.68 655.8 252.476 658.157C256.115 659.943 260.204 655.904 274.116 637.11C288.226 617.951 289.484 616.578 290.363 618.675C290.615 619.275 290.677 626.152 290.501 633.976C290.061 656.14 290.494 660.538 293.408 662.275C295.676 663.649 298.399 661.733 305.991 653.267C315.306 643.022 317.793 640.711 318.899 641.164C319.495 641.407 320.625 644.103 322.431 649.757C326.802 663.213 329.273 665.911 335.09 663.472C338.989 661.838 341.51 659.442 347.439 651.885C352.315 645.685 353.18 643.208 350.242 644.44Z" fill="url(#paint46_linear_35_1706)"/>
<path d="M817.343 305.963C815.871 312.352 817.838 323.496 821.16 327.711C825.867 333.742 826.305 334.023 829.579 334.58C835.963 335.589 843.42 332.036 847.983 326.009C851.329 321.517 852.136 317.249 850.132 314.11C849.408 312.951 848.484 311.74 848.046 311.46C846.369 310.461 841.099 310.244 837.018 310.945L832.722 311.739L830.907 307.101C829.489 303.412 828.635 302.092 826.938 301.004C824.092 299.177 822.432 299.116 820.387 300.737C818.217 302.433 818.097 302.741 817.343 305.963ZM824.186 305.413C824.788 305.8 825.799 307.838 826.395 309.919C828.506 316.985 829.292 317.567 836.212 316.295C844.3 314.769 846.512 315.416 845.747 319.016C844.784 323.648 839.04 328.145 832.214 329.632L827.508 330.704L825.79 328.443C823.392 325.438 822.172 321.799 821.775 316.758C821.089 308.675 822.106 304.079 824.186 305.413Z" fill="url(#paint47_linear_35_1706)"/>
<path d="M762.384 393.904C759.563 402.515 763.181 412.171 771.172 417.298L775.058 419.792L769.045 428.439C758.638 443.454 746.275 455.978 733.071 464.875C728.938 467.704 725.539 470.232 725.598 470.502C725.849 471.435 729.383 470.383 733.544 468.112C747.746 460.55 764.269 444.674 775.365 427.863L780.492 420.113L784.034 419.53C796.493 417.334 806.744 405.693 812.1 387.592C814.122 380.707 816.055 370.831 817.603 359.627C818.764 350.954 818.788 348.267 817.803 347.635C816.872 347.038 815.666 351.205 813.397 363.413C807.91 392.315 801.923 405.379 790.966 411.858C788.023 413.675 783.505 415.176 782.684 414.65C782.465 414.509 782.558 413.642 782.9 412.627C783.263 411.701 783.832 408.284 784.227 405.141C785.04 399.178 784.345 393.637 782.297 390.084C780.696 387.281 776.591 384.647 773.704 384.57C769.102 384.397 764.197 388.429 762.384 393.904ZM771.91 390.136C773.808 389.346 776.267 390.692 777.848 393.405C780.099 397.243 779.873 406.747 777.424 412.973C776.836 414.371 776.496 414.539 775.082 414.094C770.709 412.601 766.653 405.675 766.692 399.834C766.656 395.796 769.099 391.265 771.91 390.136Z" fill="url(#paint48_linear_35_1706)"/>
<path d="M351.907 234.988C352.329 236.041 353.555 240.259 354.57 244.377C357.432 255.97 361.811 263.655 366.114 264.716C367.828 265.181 368.461 265.02 370.31 263.756C372.46 262.316 375.224 257.958 375.629 255.4C375.789 254.719 376.217 254.063 376.603 254.005C377.641 253.915 387.792 261.06 391.311 264.342C394.135 266.939 396.644 270.504 396.905 272.238C397.147 273.844 393.923 278.206 389.866 281.839C380.994 289.744 377.699 294.511 377.617 299.648C377.585 307.734 388.584 313.963 411.815 318.878C424.112 321.495 426.733 322.744 425.207 325.273C424.843 325.919 421.67 328.433 418.157 330.867C407.258 338.42 404.179 342.432 405.02 348.021C405.871 353.675 413.33 359.977 422.595 362.985C428.319 364.752 434.339 365.423 435.213 364.24C436.033 363.132 435.061 362.358 432.235 361.929C423.671 360.524 412.775 354.542 410.664 350.129C408.617 345.706 409.264 344.755 420.747 336.719C428.781 331.108 431.047 329.125 431.944 327.216C434.887 320.991 430.783 316.878 418.965 314.386C402.918 310.887 396.956 309.287 392.37 307.218C387.433 305.004 384.361 302.509 384.052 300.454C383.675 297.948 386.352 294.326 393.415 287.941C402.377 279.759 403.894 277.166 403.034 271.447C402.599 268.556 401.933 266.751 400.363 264.622C397.873 261.186 389.555 254.422 384.487 251.768L380.839 249.82L384.662 248.128C389.173 246.201 390.906 244.166 391.814 240.153C394.28 229.006 380.515 221.879 361.994 224.666C354.663 225.769 351.657 227.207 351.079 229.922C350.598 231.966 350.749 232.534 351.907 234.988ZM361.482 229.999C377.311 227.683 389.934 233.34 385.316 240.671C384.033 242.638 383.85 242.731 377.365 243.772C373.709 244.388 370.374 244.956 369.934 245.088C368.86 245.381 369.279 247.289 370.771 248.904C371.855 249.989 372.016 250.622 371.682 252.775C371.387 255.184 368.662 259.799 367.504 259.974C366.797 260.08 363.741 255.941 362.534 253.166C361.936 251.81 360.362 246.594 359.074 241.531C357.731 236.543 356.505 232.325 356.357 232.216C355.321 231.452 357.173 230.648 361.482 229.999Z" fill="url(#paint49_linear_35_1706)"/>
<path d="M845.751 492.789C844.137 492.763 841.521 493.591 838.724 495.122C836.324 496.395 834.186 497.465 834.051 497.521C833.917 497.576 833.075 495.377 832.201 492.72C830.447 487.313 828.394 484.922 824.784 484.021C822.16 483.375 817.853 485.057 815.718 487.51C810.899 493.144 811.609 505.489 817.34 515.134C821.187 521.501 821.254 521.127 812.611 531.452L805.2 540.261L805.072 534.373C804.843 524.344 799.398 514.173 794.244 514.256C792.22 514.304 790.359 516.047 789.881 518.476C789.287 521.236 789.858 528.199 790.909 530.752C791.973 533.489 796.114 540.111 798.578 543.119L800.233 545.077L796.816 548.31C789.029 555.672 773.377 565.24 758.178 572.013C750.304 575.418 748.979 576.248 749.861 577.016C751.772 578.679 769.489 571.685 781.887 564.371C789.771 559.767 799.381 552.785 801.772 550.038C803.608 547.929 805.131 547.961 809.568 550.186C817.96 554.301 829.742 554.124 836.532 549.689C840.416 547.207 840.681 542.35 836.959 540.49C833.232 538.538 824.469 538.412 814.959 540.134L811.683 540.731L814.836 537.01C816.538 534.956 819.416 531.254 821.227 528.778C824.422 524.316 824.556 524.261 828.43 522.977C834.559 520.983 839.499 517.783 844.49 512.643C849.993 506.915 851.655 503.62 851.426 498.936C851.227 494.711 849.487 492.851 845.751 492.789ZM847.52 499.761C847.595 503.534 842.857 509.67 836.703 513.969C830.939 517.918 825.648 520.038 824.954 518.658C824.684 518.078 823.426 515.862 822.217 513.688C818.823 507.889 817.728 504.694 817.339 499.699C816.918 494.245 818.188 490.609 821.175 489.157C825.359 487.022 827.904 490.531 828.343 498.932C828.825 507.284 830.447 508.093 835.321 502.593C837.2 500.434 841.218 497.897 844.023 497.148C846.009 496.549 847.51 497.596 847.52 499.761ZM833.383 546.775C831.143 548.36 819.575 548.982 815.023 547.778C812.913 547.234 811.212 546.616 811.193 546.34C811.086 544.781 825.83 542.786 831.414 543.595C835.231 544.158 835.801 545.086 833.383 546.775ZM798.982 525.536C799.805 527.46 800.601 530.998 800.759 533.291L801.091 537.461L799.5 536.42C796.26 534.204 793.364 526.25 794.253 521.765L794.695 519.477L796.067 520.671C796.851 521.354 798.152 523.521 798.982 525.536Z" fill="url(#paint50_linear_35_1706)"/>
<path d="M875.304 406.7C874.394 407.415 872.64 409.691 871.47 411.707L869.326 415.414L862.309 415.934C854.123 416.585 852.434 417.105 851.459 419.251C850.289 421.787 851.199 423.543 856.007 428.421C858.541 430.892 860.62 433.363 860.62 433.818C860.62 434.273 859.84 437.265 858.931 440.387C857.956 443.573 857.371 446.695 857.631 447.28C858.216 448.906 860.62 448.255 866.792 444.744C869.651 443.118 872.315 441.752 872.64 441.752C873.03 441.752 875.044 442.663 877.188 443.703C881.736 445.914 883.945 446.109 886.024 444.419C887.323 443.378 887.583 442.468 887.778 438.305L888.038 433.363L892.066 430.827C897.264 427.38 899.473 425.364 899.993 423.218C900.772 419.966 896.744 417.755 890.052 417.69C886.089 417.69 884.14 416.715 883.62 414.634C882.905 411.707 881.021 407.61 879.787 406.44C878.357 405.009 877.383 405.074 875.304 406.7ZM877.513 415.479C877.513 415.999 877.058 416.39 876.538 416.39C875.434 416.39 875.369 416.259 875.953 414.829C876.408 413.658 877.513 414.048 877.513 415.479ZM865.818 422.568C865.818 423.413 864.258 426.795 863.869 426.795C863.089 426.795 859.321 423.543 859.321 422.893C859.321 422.568 859.97 422.242 860.815 422.112C862.179 421.917 865.818 422.242 865.818 422.568ZM877.708 422.828C879.397 423.478 879.722 424.193 880.436 428.095C880.826 430.306 880.761 430.437 877.318 432.323L873.744 434.208L871.145 432.453L868.482 430.697L869.456 427.9C871.21 422.828 873.679 421.332 877.708 422.828ZM890.767 424.454C890.377 425.494 887.388 426.925 886.609 426.47C886.349 426.34 885.959 425.559 885.764 424.844C885.439 423.673 885.764 423.543 888.298 423.543C890.377 423.543 891.027 423.738 890.767 424.454ZM866.467 437.46C866.467 437.655 866.208 437.98 865.818 438.175C865.493 438.371 865.168 438.24 865.168 437.915C865.168 437.525 865.493 437.2 865.818 437.2C866.208 437.2 866.467 437.33 866.467 437.46Z" fill="url(#paint51_linear_35_1706)"/>
<path d="M174.028 566.036C173.989 567.193 174.602 570 175.392 572.193L176.849 576.22L172.73 581.925C167.958 588.608 167.269 590.236 168.284 592.363C169.472 594.891 171.401 595.325 178.229 594.785C181.751 594.437 184.981 594.436 185.329 594.729C185.677 595.022 187.465 597.545 189.268 600.25C191.079 603.047 193.092 605.504 193.707 605.682C195.328 606.281 196.377 604.023 197.663 597.039C198.259 593.804 198.929 590.887 199.138 590.638C199.389 590.34 201.382 589.384 203.558 588.413C208.178 586.356 209.749 584.791 209.794 582.112C209.834 580.448 209.304 579.663 206.245 576.834L202.63 573.454L203.282 568.739C203.99 562.542 203.869 559.554 202.561 557.775C200.575 555.085 196.289 556.745 191.932 561.824C189.381 564.857 187.38 565.721 185.453 564.779C182.753 563.442 178.405 562.247 176.714 562.438C174.699 562.611 174.122 563.399 174.028 566.036ZM182.168 569.997C182.566 570.332 182.572 570.931 182.238 571.329C181.527 572.174 181.385 572.14 180.667 570.772C180.064 569.67 181.073 569.076 182.168 569.997ZM180.065 583.51C180.712 584.054 182.296 587.424 182.045 587.722C181.543 588.319 176.629 589.11 176.131 588.691C175.883 588.482 176.052 587.775 176.496 587.045C177.225 585.875 179.816 583.3 180.065 583.51ZM187.917 574.578C189.502 573.704 190.259 573.916 193.705 575.881C195.648 577.006 195.706 577.139 194.933 580.988L194.076 584.937L191.059 585.795L188.001 586.704L186.488 584.158C183.735 579.55 184.18 576.698 187.917 574.578ZM197.568 565.631C198.113 566.599 197.284 569.807 196.434 570.111C196.167 570.226 195.319 570.022 194.646 569.71C193.541 569.205 193.651 568.873 195.282 566.934C196.62 565.343 197.188 564.971 197.568 565.631ZM191.88 592.599C192.029 592.724 192.111 593.133 192.009 593.556C191.949 593.931 191.641 594.096 191.392 593.886C191.093 593.635 191.054 593.177 191.263 592.929C191.514 592.63 191.78 592.515 191.88 592.599Z" fill="url(#paint52_linear_35_1706)"/>
<path d="M259.623 242.211C259.585 243.368 260.198 246.176 260.988 248.368L262.445 252.395L258.326 258.1C253.554 264.784 252.865 266.411 253.88 268.538C255.068 271.066 256.997 271.5 263.825 270.96C267.347 270.612 270.576 270.612 270.925 270.905C271.273 271.198 273.06 273.72 274.864 276.426C276.675 279.223 278.688 281.679 279.303 281.857C280.923 282.456 281.973 280.198 283.259 273.214C283.855 269.98 284.524 267.062 284.733 266.813C284.984 266.515 286.978 265.56 289.154 264.589C293.774 262.532 295.345 260.967 295.389 258.287C295.43 256.623 294.9 255.838 291.84 253.01L288.225 249.629L288.877 244.914C289.585 238.718 289.465 235.729 288.157 233.95C286.17 231.26 281.885 232.92 277.528 237.999C274.977 241.032 272.975 241.896 271.048 240.954C268.349 239.617 264 238.422 262.31 238.613C260.295 238.786 259.717 239.574 259.623 242.211ZM267.764 246.172C268.162 246.507 268.168 247.106 267.833 247.504C267.122 248.349 266.981 248.315 266.262 246.947C265.659 245.845 266.669 245.251 267.764 246.172ZM265.661 259.685C266.308 260.229 267.892 263.599 267.641 263.898C267.139 264.494 262.225 265.285 261.727 264.866C261.478 264.657 261.648 263.951 262.092 263.221C262.821 262.051 265.412 259.476 265.661 259.685ZM273.513 250.753C275.098 249.879 275.855 250.091 279.301 252.056C281.244 253.181 281.302 253.314 280.528 257.164L279.671 261.112L276.655 261.971L273.596 262.879L272.084 260.333C269.331 255.726 269.775 252.873 273.513 250.753ZM283.164 241.806C283.709 242.774 282.88 245.982 282.03 246.286C281.763 246.401 280.915 246.197 280.242 245.886C279.137 245.381 279.247 245.048 280.878 243.109C282.216 241.518 282.783 241.147 283.164 241.806ZM277.476 268.774C277.625 268.9 277.707 269.308 277.605 269.732C277.545 270.106 277.236 270.271 276.988 270.062C276.689 269.81 276.649 269.352 276.858 269.104C277.109 268.805 277.376 268.69 277.476 268.774Z" fill="url(#paint53_linear_35_1706)"/>
<path d="M122.256 610.39C120.895 610.508 118.562 611.376 117.052 612.272C114.743 613.635 114.077 614.497 112.558 618.026C111.024 621.41 110.814 622.72 111.029 626.061L111.345 630.063L106.381 630.925C100.049 632.111 92.0869 632.275 83.9317 631.466C78.6446 630.959 76.0343 630.337 69.251 627.887C64.7439 626.213 60.4266 624.401 59.6419 623.901C58.8797 623.341 57.7608 622.995 57.1603 623.118C56.1648 623.373 56.1195 623.495 56.7075 624.338C58.3949 626.699 62.1883 628.801 69.6415 631.5C76.2803 633.966 78.6853 634.582 84.8321 635.2C93.0255 636.093 100.805 635.86 108.209 634.587C113.295 633.77 113.295 633.77 114.326 635.471C116.038 638.327 121.537 644.046 125.546 647.062C132.818 652.676 140.767 655.906 156.855 659.8L160.037 660.566L160.686 664.414C162.472 674.721 173.381 686.403 185.379 690.86C193.967 694.05 206.351 695.042 219.048 693.514C226.149 692.683 230.671 691.518 231.078 690.421C231.441 689.445 230.026 689.336 220.984 689.793C204.757 690.565 197.484 689.806 188.348 686.413C178.116 682.612 171.087 676.533 167.222 668.091C164.008 661.07 164.205 660.726 171.156 660.672C188.184 660.545 201.355 652.325 199.2 643.2C197.837 637.352 192.179 634.487 183.457 635.202C177.542 635.641 170.903 638.587 166.822 642.482C164.486 644.667 163.313 646.52 161.597 650.392L159.33 655.378L154.939 654.51C152.55 654.039 147.442 652.489 143.544 651.041C132.825 647.059 125.228 641.948 120.228 635.443L118.006 632.468L122.001 630.483C126.581 628.229 130.934 624.158 132.067 621.11C133.063 618.427 132.314 614.472 130.538 612.911C128.563 611.137 125 610.091 122.256 610.39ZM128.392 617.941C128.393 620.924 124.723 624.834 119.983 626.958C116.77 628.332 116.206 627.983 115.786 624.636C115.335 621 117.764 616.699 120.932 615.448C124.411 614.104 128.354 615.43 128.392 617.941ZM194.226 643.156C194.784 644.266 195.047 645.612 194.843 646.16C193.507 649.757 185.914 654.152 179.255 655.286C175.614 655.946 166.846 656.227 165.628 655.775C165.263 655.639 165.608 653.963 166.332 652.012C168.755 645.489 175.89 640.647 184.307 639.819C189.835 639.305 192.986 640.337 194.226 643.156Z" fill="url(#paint54_linear_35_1706)"/>
<path d="M1004.23 337.471C994.04 333.403 978.931 334.904 967.822 341.067C963.905 343.288 962.993 343.392 959.346 341.611C954.621 339.354 944.476 337.628 940.238 338.449C936.289 339.187 934.051 343.439 935.657 347.139C937.004 350.207 944.06 358.154 949.355 362.681C951.707 364.598 952.629 366.453 952.929 370.526C955.559 397.872 979.95 415.689 1005.37 408.802C1013.68 406.579 1013.83 406.538 1022.08 409.902C1035.7 415.265 1044.58 414.213 1045.17 407.215C1045.5 402.882 1040.81 396.613 1034.33 392.895C1029.35 390.005 1028.99 389.56 1029.76 387.061C1034.35 371.778 1029 354.158 1017.02 345.187C1014.99 343.571 1012.49 341.696 1011.52 341.034C1010.6 340.277 1007.32 338.703 1004.23 337.471ZM1017.13 352.693C1021.82 357.863 1025.95 370.414 1025.43 377.941C1025.14 381.32 1024 385.571 1022.66 387.998C1019.86 393.037 1015.15 397.995 1013 398.141C1010.89 398.194 993.299 387.692 978.555 377.551C957.976 363.195 958.152 363.537 962.868 355.044C969.293 343.472 982.837 337.317 995.075 340.327C1002.4 342.075 1012.79 347.968 1017.13 352.693ZM957.79 353.202C954.888 358.428 954.495 358.698 952.629 357.662C950.112 356.264 943.895 349.881 941.833 346.783C941.118 345.654 940.983 344.358 941.667 344.005C943.626 342.895 954.744 344.184 957.915 345.945L960.899 347.602L957.79 353.202ZM1037.15 402.762C1038.6 404.544 1039.29 406.389 1038.74 406.939C1037 408.536 1031.44 407.772 1025.21 404.925L1019.4 402.429L1021.46 400.034C1026.23 394.744 1026.09 394.786 1030.47 397.22C1032.8 398.514 1035.79 401.032 1037.15 402.762ZM985.559 388.888C996.097 395.839 1004.86 401.805 1004.99 402.24C1005.41 403.453 998.645 404.213 991.93 403.782C982.552 403.092 972.253 397.251 966.388 389.355C962.513 384.029 958.462 373.965 959.499 372.099C959.758 371.632 961.395 372.419 963.198 373.786C964.907 375.102 975.021 381.938 985.559 388.888Z" fill="url(#paint55_linear_35_1706)"/>
<path d="M196.655 406.247C193.926 407.418 190.612 411.385 190.158 414.051C188.858 420.685 195.745 427.578 205.296 429.399C209.909 430.244 212.963 429.594 215.562 427.123C217.446 425.302 217.771 424.586 217.771 421.985C217.771 416.262 213.807 411.905 208.09 411.32C201.593 410.735 198.864 414.246 201.593 419.839C203.997 424.782 206.79 424.652 205.426 419.709C205.036 418.213 204.906 416.718 205.101 416.392C206.271 414.506 212.118 417.108 213.223 420.034C214.132 422.31 214.067 422.701 212.573 424.196C208.739 428.033 195.875 423.221 194.121 417.238C193.471 415.157 195.29 411.385 197.759 409.889C199.514 408.784 200.878 408.588 205.621 408.654C208.739 408.719 211.468 408.588 211.663 408.393C213.937 406.117 201.073 404.296 196.655 406.247Z" fill="url(#paint56_linear_35_1706)"/>
<path d="M799.655 437.247C796.926 438.418 793.612 442.385 793.158 445.051C791.858 451.685 798.745 458.578 808.296 460.399C812.909 461.244 815.963 460.594 818.562 458.123C820.446 456.302 820.771 455.586 820.771 452.985C820.771 447.262 816.807 442.905 811.09 442.32C804.593 441.735 801.864 445.246 804.593 450.839C806.997 455.782 809.79 455.652 808.426 450.709C808.036 449.213 807.906 447.718 808.101 447.392C809.271 445.506 815.118 448.108 816.223 451.034C817.132 453.31 817.067 453.701 815.573 455.196C811.739 459.033 798.875 454.221 797.121 448.238C796.471 446.157 798.29 442.385 800.759 440.889C802.514 439.784 803.878 439.588 808.621 439.654C811.739 439.719 814.468 439.588 814.663 439.393C816.937 437.117 804.073 435.296 799.655 437.247Z" fill="url(#paint57_linear_35_1706)"/>
<path d="M901.655 566.247C898.926 567.418 895.612 571.385 895.158 574.051C893.858 580.685 900.745 587.578 910.296 589.399C914.909 590.244 917.963 589.594 920.562 587.123C922.446 585.302 922.771 584.586 922.771 581.985C922.771 576.262 918.807 571.905 913.09 571.32C906.593 570.735 903.864 574.246 906.593 579.839C908.997 584.782 911.79 584.652 910.426 579.709C910.036 578.213 909.906 576.718 910.101 576.392C911.271 574.506 917.118 577.108 918.223 580.034C919.132 582.31 919.067 582.701 917.573 584.196C913.739 588.033 900.875 583.221 899.121 577.238C898.471 575.157 900.29 571.385 902.759 569.889C904.514 568.784 905.878 568.588 910.621 568.654C913.739 568.719 916.468 568.588 916.663 568.393C918.937 566.117 906.073 564.296 901.655 566.247Z" fill="url(#paint58_linear_35_1706)"/>
<path d="M89.1993 511.847C91.7727 512.949 92.0951 511.432 89.9824 508.124C87.2266 503.805 87.1376 497.554 89.8057 492.772C91.8758 488.956 91.1871 487.44 88.1067 489.142C84.5206 491.258 82.4502 495.717 82.7236 500.773C83.0888 506.197 85.477 510.24 89.1993 511.847Z" fill="url(#paint59_linear_35_1706)"/>
<path d="M111.304 519.237C116.267 521.625 120.128 522.45 125.827 522.356C132.354 522.261 138.054 521.063 143.893 518.532C146.467 517.428 148.72 516.462 148.904 516.462C149.042 516.416 149.271 518.116 149.408 520.276C149.818 526.389 153.539 531.949 157.859 532.866C162.685 533.829 170.04 531.528 177.488 526.744C180.017 525.134 182.73 523.708 183.419 523.662C184.154 523.57 189.486 524.303 195.231 525.265C206.123 527.053 210.122 527.189 211.64 525.671C212.743 524.567 211.778 523.603 208.332 522.455C206.861 521.996 203.691 520.113 201.301 518.276C199.004 516.438 194.915 513.636 192.249 511.983C183.565 506.609 182.049 505.461 181.911 504.128C181.866 503.439 182.281 500.451 182.88 497.463C184.63 488.545 183.117 481.697 178.477 476.965C174.618 473.106 168.459 472.19 161.38 474.491L159.035 475.182L159.358 472.01C160.05 466.173 159.549 458.037 158.309 454.407C156.703 449.765 153.257 446.044 149.719 445.08C145.628 444.025 140.158 446.188 134.87 451.016L130.501 454.925L129.353 453.225C119.11 438.292 107.025 430.346 95.3964 430.949C91.4894 431.18 86.4325 433.113 84.3172 435.229C82.3399 437.206 80.2691 442.309 80.0836 445.894C79.4357 455.271 86.6477 464.414 101.582 473.186C104.798 475.115 107.601 476.998 107.785 477.458C108.014 477.872 106.635 479.895 104.105 482.791C97.7589 490.057 96.2864 493.642 97.2026 500.169C98.2561 507.936 104.09 515.885 111.304 519.237ZM101.659 504.258C98.6749 496.859 99.918 492.4 107 484.307C113.622 476.766 113.439 476.306 102.503 469.693C97.8157 466.845 95.1048 464.778 91.2457 460.919C86.6514 456.417 86.0084 455.498 84.769 452.051C80.408 440.148 90.4321 431.503 103.3 436.185C110.882 438.893 117.453 444.36 124.251 453.549C127.742 458.236 128.339 458.833 129.902 459.2C131.924 459.567 131.556 459.843 137.12 454.463C149.72 442.23 158.036 449.994 155.452 471.69C154.99 475.643 154.942 479.183 155.264 479.504C156.137 480.377 157.7 480.101 160.734 478.628C166.159 476.052 172.686 476.416 175.856 479.586C179.439 483.17 180.539 490.983 178.604 499.717C177.729 503.533 178.187 506.106 180.025 507.944C180.576 508.495 184.436 511.159 188.572 513.823C198.864 520.529 200.748 521.861 200.196 522.413C199.92 522.689 196.152 522.231 191.785 521.36C187.419 520.58 183.145 520.077 182.317 520.261C181.444 520.491 179.053 521.779 176.984 523.113C169.582 527.943 161.951 530.52 158.182 529.419C154.552 528.272 151.751 521.424 152.857 516.184C153.548 513.196 152.813 511.266 151.112 511.313C150.423 511.359 147.986 512.417 145.642 513.568C134.056 519.64 120.543 520.198 111.168 515.054C107.63 513.08 103.128 508.026 101.659 504.258Z" fill="url(#paint60_linear_35_1706)"/>
<path d="M131.522 532.833C132.625 532.74 135.245 532.326 137.314 531.819L141.129 530.944L142.691 534.069C144.298 537.423 146.044 538.893 147.055 537.882C147.377 537.56 147.424 536.594 147.148 535.675C146.873 534.848 146.277 532.32 145.91 530.114C144.763 524.461 143.936 524.278 135.431 528.005C131.615 529.615 128.535 531.134 128.535 531.409C128.535 532.421 129.683 532.926 131.522 532.833Z" fill="url(#paint61_linear_35_1706)"/>
<path d="M186.769 535.657C191.457 535.471 197.479 534.687 198.95 534.042C200.559 533.26 199.962 532.02 197.894 531.883C195.09 531.746 183.323 533.314 182.771 533.866C181.575 535.062 183.229 535.796 186.769 535.657Z" fill="url(#paint62_linear_35_1706)"/>
<path d="M201.258 511.795C207.692 514.825 210.403 515.146 209.118 512.665C208.521 511.516 199.146 506.832 197.032 506.649C193.861 506.329 196.387 509.407 201.258 511.795Z" fill="url(#paint63_linear_35_1706)"/>
<path d="M138.736 440.167C139.195 440.259 140.804 439.937 142.367 439.476C145.907 438.325 148.527 438.37 152.295 439.839C156.293 441.354 160.566 445.535 162.448 449.9C163.78 452.887 163.918 453.117 164.929 452.657C166.4 452.013 165.897 447.463 164.014 444.108C161.075 438.87 153.585 434.231 148.207 434.371C144.806 434.465 140.53 435.984 138.645 437.869C137.173 439.341 137.173 439.892 138.736 440.167Z" fill="url(#paint64_linear_35_1706)"/>
<path d="M504.45 1.83577C501.41 3.36717 497.844 7.16461 496.696 10.1816C494.854 15.0371 493.989 23.1357 494.99 27.3095C495.884 31.0407 495.566 31.3846 492.038 31.1604C485.138 30.8082 478.995 33.8861 477.913 38.2917C477.094 41.5643 478.486 45.9787 481.539 49.7943C484.39 53.324 490.308 57.3889 493.798 58.2909C496.283 58.8991 496.437 59.2634 494.918 61.5669C493.063 64.4192 493.328 66.3618 496.163 69.8283C499.904 74.2817 504.998 77.1396 512.921 79.2527C524.099 82.1236 534.678 81.6605 538.227 78.0679C539.483 76.8974 542.576 69.7357 543.413 66.2582C543.446 66.1166 544.719 66.4131 546.276 66.7755C548.336 67.2849 549.723 67.2197 551.684 66.482C561.412 62.7456 574.082 42.8556 575.313 29.3191C575.732 24.9385 573.916 17.0815 571.876 14.4273C568.467 9.96143 562.366 8.4815 558.166 11.0266C555.361 12.7023 552.975 15.013 550.309 18.6617C549.144 20.2116 548.044 21.4783 547.791 21.5389C547.539 21.5995 546.639 20.0764 545.712 18.1588C542.699 11.7253 537.655 8.52081 532.35 9.52507C529.492 10.1435 529.335 10.0473 527.281 7.32981C525.133 4.50103 520.48 1.53704 516.849 0.602056C515.15 0.206705 507.68 0.258936 506.714 0.691014C506.54 0.799697 505.511 1.24692 504.45 1.83577ZM513.457 5.96271C517.235 6.39443 520.67 8.17918 523.118 10.869L525.239 13.3032L523.629 16.8992C521.599 21.532 521.129 24.5872 521.715 29.2617C522.203 32.6892 522.041 33.1292 520.194 35.1772C516.946 38.6308 515.452 48.2846 517.011 55.0665C517.314 56.3313 517.398 57.515 517.254 57.7502C517.125 58.0486 515.063 57.8074 512.672 57.3105C510.281 56.8137 506.738 56.5263 504.751 56.6012C498.287 56.9473 491.087 53.3903 486.116 47.4264C483.498 44.3091 482.532 41.3973 483.42 39.2453C484.37 37.0781 489.675 36.0738 494.929 37.0879C499.286 37.9828 501.762 37.7234 502.248 36.4033C502.409 35.9633 501.965 32.9936 501.255 29.7532C499.236 19.9384 500.762 11.8149 505.334 8.31129C508.081 6.11455 509.899 5.61204 513.457 5.96271ZM535.206 14.1905C538.256 14.9304 540.869 18.584 542.656 24.6426C545.269 33.3118 547.003 33.2975 552.871 24.3336C557.668 17.0311 560.845 14.3969 564.118 14.9498C566.824 15.3709 568.55 17.8328 569.778 22.9553C570.915 27.6983 570.008 33.6671 567.091 40.452C563.288 49.389 553.944 60.8578 549.584 61.903C547.563 62.3877 544.067 62.0219 543.901 61.3262C543.918 61.1214 543.843 59.1333 543.848 56.9251C543.881 51.7678 542.046 44.1157 539.891 40.4194C537.379 36.0728 533.702 33.2762 529.203 32.3484C525.476 31.5702 525.319 31.474 525.228 29.4227C525.066 24.847 526.755 19.6272 529.462 16.7046C532.376 13.5316 532.502 13.5013 535.206 14.1905ZM531.708 39.1712C534.447 41.1226 536.618 44.8822 537.815 49.8782C539.526 57.2925 538.313 68.9522 535.073 74.9452L533.501 77.8634L528.507 77.6562C518.456 77.2571 508.057 73.7315 502.193 68.7839C499.004 66.071 498.661 64.0803 501.132 62.6852C503.841 61.1663 506.867 61.2436 513.738 62.8731C520.248 64.3886 521.982 64.3742 522.801 62.7735C523.059 62.1767 522.869 58.8783 522.414 55.3092C521.447 47.6499 521.71 43.1731 523.299 40.0501C524.28 38.0094 524.74 37.6985 526.774 37.5451C528.399 37.3561 529.938 37.9234 531.708 39.1712Z" fill="url(#paint65_linear_35_1706)"/>
<defs>
<linearGradient id="paint0_linear_35_1706" x1="666.928" y1="37.9991" x2="659.99" y2="192.613" gradientUnits="userSpaceOnUse">
<stop stop-color="#42307D"/>
<stop offset="1" stop-color="#7F56D9"/>
</linearGradient>
<linearGradient id="paint1_linear_35_1706" x1="681.152" y1="156.492" x2="689.142" y2="174.442" gradientUnits="userSpaceOnUse">
<stop stop-color="#42307D"/>
<stop offset="1" stop-color="#7F56D9"/>
</linearGradient>
<linearGradient id="paint2_linear_35_1706" x1="709.92" y1="177.787" x2="718.08" y2="192.268" gradientUnits="userSpaceOnUse">
<stop stop-color="#42307D"/>
<stop offset="1" stop-color="#7F56D9"/>
</linearGradient>
<linearGradient id="paint3_linear_35_1706" x1="641.535" y1="139.366" x2="647.936" y2="153.97" gradientUnits="userSpaceOnUse">
<stop stop-color="#42307D"/>
<stop offset="1" stop-color="#7F56D9"/>
</linearGradient>
<linearGradient id="paint4_linear_35_1706" x1="671.439" y1="183.866" x2="678.726" y2="202.591" gradientUnits="userSpaceOnUse">
<stop stop-color="#42307D"/>
<stop offset="1" stop-color="#7F56D9"/>
</linearGradient>
<linearGradient id="paint5_linear_35_1706" x1="636.373" y1="166.637" x2="641.224" y2="177.789" gradientUnits="userSpaceOnUse">
<stop stop-color="#42307D"/>
<stop offset="1" stop-color="#7F56D9"/>
</linearGradient>
<linearGradient id="paint6_linear_35_1706" x1="341.675" y1="116.421" x2="408.038" y2="236.915" gradientUnits="userSpaceOnUse">
<stop stop-color="#42307D"/>
<stop offset="1" stop-color="#7F56D9"/>
</linearGradient>
<linearGradient id="paint7_linear_35_1706" x1="363.745" y1="138.627" x2="432.968" y2="251.367" gradientUnits="userSpaceOnUse">
<stop stop-color="#42307D"/>
<stop offset="1" stop-color="#7F56D9"/>
</linearGradient>
<linearGradient id="paint8_linear_35_1706" x1="332" y1="169.649" x2="355.215" y2="183.182" gradientUnits="userSpaceOnUse">
<stop stop-color="#42307D"/>
<stop offset="1" stop-color="#7F56D9"/>
</linearGradient>
<linearGradient id="paint9_linear_35_1706" x1="500.934" y1="184.046" x2="516.779" y2="190.029" gradientUnits="userSpaceOnUse">
<stop stop-color="#42307D"/>
<stop offset="1" stop-color="#7F56D9"/>
</linearGradient>
<linearGradient id="paint10_linear_35_1706" x1="658.998" y1="254.157" x2="803.899" y2="385.322" gradientUnits="userSpaceOnUse">
<stop stop-color="#42307D"/>
<stop offset="1" stop-color="#7F56D9"/>
</linearGradient>
<linearGradient id="paint11_linear_35_1706" x1="698.059" y1="279.506" x2="723.404" y2="283.877" gradientUnits="userSpaceOnUse">
<stop stop-color="#42307D"/>
<stop offset="1" stop-color="#7F56D9"/>
</linearGradient>
<linearGradient id="paint12_linear_35_1706" x1="754.873" y1="304.77" x2="804.824" y2="337.041" gradientUnits="userSpaceOnUse">
<stop stop-color="#42307D"/>
<stop offset="1" stop-color="#7F56D9"/>
</linearGradient>
<linearGradient id="paint13_linear_35_1706" x1="683.085" y1="354.149" x2="691.067" y2="360.934" gradientUnits="userSpaceOnUse">
<stop stop-color="#42307D"/>
<stop offset="1" stop-color="#7F56D9"/>
</linearGradient>
<linearGradient id="paint14_linear_35_1706" x1="728.262" y1="364.999" x2="734.513" y2="375.578" gradientUnits="userSpaceOnUse">
<stop stop-color="#42307D"/>
<stop offset="1" stop-color="#7F56D9"/>
</linearGradient>
<linearGradient id="paint15_linear_35_1706" x1="229.442" y1="347.242" x2="396.556" y2="312.268" gradientUnits="userSpaceOnUse">
<stop stop-color="#42307D"/>
<stop offset="1" stop-color="#7F56D9"/>
</linearGradient>
<linearGradient id="paint16_linear_35_1706" x1="415.943" y1="557.097" x2="415.527" y2="563.338" gradientUnits="userSpaceOnUse">
<stop stop-color="#42307D"/>
<stop offset="1" stop-color="#7F56D9"/>
</linearGradient>
<linearGradient id="paint17_linear_35_1706" x1="339.741" y1="509.578" x2="348.16" y2="546.404" gradientUnits="userSpaceOnUse">
<stop stop-color="#42307D"/>
<stop offset="1" stop-color="#7F56D9"/>
</linearGradient>
<linearGradient id="paint18_linear_35_1706" x1="387.432" y1="544.318" x2="386.273" y2="550.308" gradientUnits="userSpaceOnUse">
<stop stop-color="#42307D"/>
<stop offset="1" stop-color="#7F56D9"/>
</linearGradient>
<linearGradient id="paint19_linear_35_1706" x1="373.081" y1="537.549" x2="371.482" y2="544.638" gradientUnits="userSpaceOnUse">
<stop stop-color="#42307D"/>
<stop offset="1" stop-color="#7F56D9"/>
</linearGradient>
<linearGradient id="paint20_linear_35_1706" x1="356.122" y1="530.423" x2="354.34" y2="538.112" gradientUnits="userSpaceOnUse">
<stop stop-color="#42307D"/>
<stop offset="1" stop-color="#7F56D9"/>
</linearGradient>
<linearGradient id="paint21_linear_35_1706" x1="351.081" y1="539.853" x2="349.877" y2="547.388" gradientUnits="userSpaceOnUse">
<stop stop-color="#42307D"/>
<stop offset="1" stop-color="#7F56D9"/>
</linearGradient>
<linearGradient id="paint22_linear_35_1706" x1="236.614" y1="460.582" x2="242.967" y2="495.644" gradientUnits="userSpaceOnUse">
<stop stop-color="#42307D"/>
<stop offset="1" stop-color="#7F56D9"/>
</linearGradient>
<linearGradient id="paint23_linear_35_1706" x1="319.192" y1="518.153" x2="317.683" y2="522.862" gradientUnits="userSpaceOnUse">
<stop stop-color="#42307D"/>
<stop offset="1" stop-color="#7F56D9"/>
</linearGradient>
<linearGradient id="paint24_linear_35_1706" x1="305.519" y1="510.587" x2="303.906" y2="515.914" gradientUnits="userSpaceOnUse">
<stop stop-color="#42307D"/>
<stop offset="1" stop-color="#7F56D9"/>
</linearGradient>
<linearGradient id="paint25_linear_35_1706" x1="371.058" y1="556.38" x2="376.198" y2="591.356" gradientUnits="userSpaceOnUse">
<stop stop-color="#42307D"/>
<stop offset="1" stop-color="#7F56D9"/>
</linearGradient>
<linearGradient id="paint26_linear_35_1706" x1="288.389" y1="499.97" x2="287.036" y2="504.817" gradientUnits="userSpaceOnUse">
<stop stop-color="#42307D"/>
<stop offset="1" stop-color="#7F56D9"/>
</linearGradient>
<linearGradient id="paint27_linear_35_1706" x1="272.146" y1="490.136" x2="270.534" y2="494.817" gradientUnits="userSpaceOnUse">
<stop stop-color="#42307D"/>
<stop offset="1" stop-color="#7F56D9"/>
</linearGradient>
<linearGradient id="paint28_linear_35_1706" x1="328.324" y1="530.067" x2="329.993" y2="536.655" gradientUnits="userSpaceOnUse">
<stop stop-color="#42307D"/>
<stop offset="1" stop-color="#7F56D9"/>
</linearGradient>
<linearGradient id="paint29_linear_35_1706" x1="359.891" y1="552.863" x2="359.533" y2="560.969" gradientUnits="userSpaceOnUse">
<stop stop-color="#42307D"/>
<stop offset="1" stop-color="#7F56D9"/>
</linearGradient>
<linearGradient id="paint30_linear_35_1706" x1="256.867" y1="481.946" x2="255.485" y2="487.491" gradientUnits="userSpaceOnUse">
<stop stop-color="#42307D"/>
<stop offset="1" stop-color="#7F56D9"/>
</linearGradient>
<linearGradient id="paint31_linear_35_1706" x1="317.435" y1="532.066" x2="320.473" y2="541.784" gradientUnits="userSpaceOnUse">
<stop stop-color="#42307D"/>
<stop offset="1" stop-color="#7F56D9"/>
</linearGradient>
<linearGradient id="paint32_linear_35_1706" x1="248.444" y1="493.464" x2="248.651" y2="499.43" gradientUnits="userSpaceOnUse">
<stop stop-color="#42307D"/>
<stop offset="1" stop-color="#7F56D9"/>
</linearGradient>
<linearGradient id="paint33_linear_35_1706" x1="355.606" y1="568.151" x2="355.269" y2="573.508" gradientUnits="userSpaceOnUse">
<stop stop-color="#42307D"/>
<stop offset="1" stop-color="#7F56D9"/>
</linearGradient>
<linearGradient id="paint34_linear_35_1706" x1="344.868" y1="565.417" x2="344.541" y2="573.017" gradientUnits="userSpaceOnUse">
<stop stop-color="#42307D"/>
<stop offset="1" stop-color="#7F56D9"/>
</linearGradient>
<linearGradient id="paint35_linear_35_1706" x1="252.65" y1="503.823" x2="254.023" y2="511.575" gradientUnits="userSpaceOnUse">
<stop stop-color="#42307D"/>
<stop offset="1" stop-color="#7F56D9"/>
</linearGradient>
<linearGradient id="paint36_linear_35_1706" x1="298.45" y1="537.67" x2="300.539" y2="547.787" gradientUnits="userSpaceOnUse">
<stop stop-color="#42307D"/>
<stop offset="1" stop-color="#7F56D9"/>
</linearGradient>
<linearGradient id="paint37_linear_35_1706" x1="255.148" y1="517.933" x2="256.055" y2="525.607" gradientUnits="userSpaceOnUse">
<stop stop-color="#42307D"/>
<stop offset="1" stop-color="#7F56D9"/>
</linearGradient>
<linearGradient id="paint38_linear_35_1706" x1="310.606" y1="556.582" x2="309.296" y2="565.724" gradientUnits="userSpaceOnUse">
<stop stop-color="#42307D"/>
<stop offset="1" stop-color="#7F56D9"/>
</linearGradient>
<linearGradient id="paint39_linear_35_1706" x1="283.106" y1="541.81" x2="286.233" y2="551.832" gradientUnits="userSpaceOnUse">
<stop stop-color="#42307D"/>
<stop offset="1" stop-color="#7F56D9"/>
</linearGradient>
<linearGradient id="paint40_linear_35_1706" x1="294.482" y1="551.731" x2="293.058" y2="561.66" gradientUnits="userSpaceOnUse">
<stop stop-color="#42307D"/>
<stop offset="1" stop-color="#7F56D9"/>
</linearGradient>
<linearGradient id="paint41_linear_35_1706" x1="258.553" y1="531.409" x2="264.834" y2="566.942" gradientUnits="userSpaceOnUse">
<stop stop-color="#42307D"/>
<stop offset="1" stop-color="#7F56D9"/>
</linearGradient>
<linearGradient id="paint42_linear_35_1706" x1="278.953" y1="548.817" x2="277.822" y2="555.967" gradientUnits="userSpaceOnUse">
<stop stop-color="#42307D"/>
<stop offset="1" stop-color="#7F56D9"/>
</linearGradient>
<linearGradient id="paint43_linear_35_1706" x1="786.999" y1="618.183" x2="967.933" y2="618.619" gradientUnits="userSpaceOnUse">
<stop stop-color="#42307D"/>
<stop offset="1" stop-color="#7F56D9"/>
</linearGradient>
<linearGradient id="paint44_linear_35_1706" x1="887.581" y1="640.72" x2="921.456" y2="652.044" gradientUnits="userSpaceOnUse">
<stop stop-color="#42307D"/>
<stop offset="1" stop-color="#7F56D9"/>
</linearGradient>
<linearGradient id="paint45_linear_35_1706" x1="956.685" y1="579.108" x2="1052.44" y2="588.088" gradientUnits="userSpaceOnUse">
<stop stop-color="#42307D"/>
<stop offset="1" stop-color="#7F56D9"/>
</linearGradient>
<linearGradient id="paint46_linear_35_1706" x1="323.811" y1="577.419" x2="285.174" y2="698.994" gradientUnits="userSpaceOnUse">
<stop stop-color="#42307D"/>
<stop offset="1" stop-color="#7F56D9"/>
</linearGradient>
<linearGradient id="paint47_linear_35_1706" x1="806.691" y1="320.914" x2="851.43" y2="306.006" gradientUnits="userSpaceOnUse">
<stop stop-color="#42307D"/>
<stop offset="1" stop-color="#7F56D9"/>
</linearGradient>
<linearGradient id="paint48_linear_35_1706" x1="716.395" y1="464.711" x2="793.094" y2="488.866" gradientUnits="userSpaceOnUse">
<stop stop-color="#42307D"/>
<stop offset="1" stop-color="#7F56D9"/>
</linearGradient>
<linearGradient id="paint49_linear_35_1706" x1="372.207" y1="374.053" x2="475.533" y2="307.186" gradientUnits="userSpaceOnUse">
<stop stop-color="#42307D"/>
<stop offset="1" stop-color="#7F56D9"/>
</linearGradient>
<linearGradient id="paint50_linear_35_1706" x1="827.111" y1="474.42" x2="871.08" y2="568.559" gradientUnits="userSpaceOnUse">
<stop stop-color="#42307D"/>
<stop offset="1" stop-color="#7F56D9"/>
</linearGradient>
<linearGradient id="paint51_linear_35_1706" x1="850.999" y1="405.42" x2="893.294" y2="454.037" gradientUnits="userSpaceOnUse">
<stop stop-color="#42307D"/>
<stop offset="1" stop-color="#7F56D9"/>
</linearGradient>
<linearGradient id="paint52_linear_35_1706" x1="157.404" y1="583.812" x2="221.834" y2="582.74" gradientUnits="userSpaceOnUse">
<stop stop-color="#42307D"/>
<stop offset="1" stop-color="#7F56D9"/>
</linearGradient>
<linearGradient id="paint53_linear_35_1706" x1="243" y1="259.988" x2="307.43" y2="258.915" gradientUnits="userSpaceOnUse">
<stop stop-color="#42307D"/>
<stop offset="1" stop-color="#7F56D9"/>
</linearGradient>
<linearGradient id="paint54_linear_35_1706" x1="68.9979" y1="589.419" x2="61.4776" y2="693.927" gradientUnits="userSpaceOnUse">
<stop stop-color="#42307D"/>
<stop offset="1" stop-color="#7F56D9"/>
</linearGradient>
<linearGradient id="paint55_linear_35_1706" x1="954.006" y1="309.003" x2="956.224" y2="437.113" gradientUnits="userSpaceOnUse">
<stop stop-color="#42307D"/>
<stop offset="1" stop-color="#7F56D9"/>
</linearGradient>
<linearGradient id="paint56_linear_35_1706" x1="190" y1="405.42" x2="214.118" y2="432.95" gradientUnits="userSpaceOnUse">
<stop stop-color="#42307D"/>
<stop offset="1" stop-color="#7F56D9"/>
</linearGradient>
<linearGradient id="paint57_linear_35_1706" x1="793" y1="436.42" x2="817.118" y2="463.95" gradientUnits="userSpaceOnUse">
<stop stop-color="#42307D"/>
<stop offset="1" stop-color="#7F56D9"/>
</linearGradient>
<linearGradient id="paint58_linear_35_1706" x1="895" y1="565.42" x2="919.118" y2="592.95" gradientUnits="userSpaceOnUse">
<stop stop-color="#42307D"/>
<stop offset="1" stop-color="#7F56D9"/>
</linearGradient>
<linearGradient id="paint59_linear_35_1706" x1="89.8086" y1="513.355" x2="90.1724" y2="487.388" gradientUnits="userSpaceOnUse">
<stop stop-color="#42307D"/>
<stop offset="1" stop-color="#7F56D9"/>
</linearGradient>
<linearGradient id="paint60_linear_35_1706" x1="163.73" y1="573.584" x2="205.905" y2="434.824" gradientUnits="userSpaceOnUse">
<stop stop-color="#42307D"/>
<stop offset="1" stop-color="#7F56D9"/>
</linearGradient>
<linearGradient id="paint61_linear_35_1706" x1="140.794" y1="544.143" x2="142.435" y2="521.01" gradientUnits="userSpaceOnUse">
<stop stop-color="#42307D"/>
<stop offset="1" stop-color="#7F56D9"/>
</linearGradient>
<linearGradient id="paint62_linear_35_1706" x1="190.388" y1="542.806" x2="188.906" y2="524.994" gradientUnits="userSpaceOnUse">
<stop stop-color="#42307D"/>
<stop offset="1" stop-color="#7F56D9"/>
</linearGradient>
<linearGradient id="paint63_linear_35_1706" x1="205.621" y1="517.735" x2="209.916" y2="507.339" gradientUnits="userSpaceOnUse">
<stop stop-color="#42307D"/>
<stop offset="1" stop-color="#7F56D9"/>
</linearGradient>
<linearGradient id="paint64_linear_35_1706" x1="157.795" y1="459.881" x2="165.58" y2="432.779" gradientUnits="userSpaceOnUse">
<stop stop-color="#42307D"/>
<stop offset="1" stop-color="#7F56D9"/>
</linearGradient>
<linearGradient id="paint65_linear_35_1706" x1="469.998" y1="9.47791" x2="573.102" y2="85.0775" gradientUnits="userSpaceOnUse">
<stop stop-color="#42307D"/>
<stop offset="1" stop-color="#7F56D9"/>
</linearGradient>
</defs>
</svg>
